<svg height="48pt" viewBox="0 0 48 48" width="48pt" xmlns="http://www.w3.org/2000/svg" xmlns:xlink="http://www.w3.org/1999/xlink"><linearGradient id="a" gradientTransform="matrix(42.5 0 0 31.496 2.75 8.252)" gradientUnits="userSpaceOnUse" x1=".994118" x2=".000181" y1=".480156" y2=".452131"><stop offset="0" stop-color="#11998e"/><stop offset=".99130434783" stop-color="#38ef7d"/></linearGradient><path d="m20.053 13.743c0 1.159-.94 2.1-2.099 2.1-1.159 0-2.1-.941-2.1-2.1v-1.291c0-2.318 1.882-4.2 4.199-4.2h20.998c2.317 0 4.199 1.882 4.199 4.2v8.955c0 1.159-.941 2.1-2.1 2.1-1.159 0-2.099-.941-2.099-2.1v-6.856c0-1.159-.941-2.099-2.1-2.099h-16.798c-1.159 0-2.1.578-2.1 1.291zm20.998 16.745c0-1.159.94-2.1 2.099-2.1 1.159 0 2.1.941 2.1 2.1v5.06c0 2.318-1.882 4.2-4.199 4.2h-20.998c-2.317 0-4.199-1.252-4.199-2.793-1.375-.598-2.709-1.312-3.979-2.121-1.554-.997-2.981-2.173-4.241-3.527-1.218-1.302-2.257-2.772-3.066-4.357-.955-1.869-1.617-3.874-1.79-4.907-.095-.571.059-1.444.345-1.948.542-.956 1.981-2.583 3.723-3.864 1.586-1.155 3.349-2.037 5.229-2.635 1.101-.348 2.279.266 2.629 1.37.351 1.104-.263 2.287-1.37 2.64-1.438.452-2.792 1.134-4.021 2.016-.839.63-1.595 1.375-2.236 2.215.294 1.103.704 2.173 1.229 3.202.64 1.239 1.438 2.384 2.393 3.402 1.019 1.092 2.173 2.047 3.433 2.855 1.439.914 2.971 1.68 4.567 2.289.819.315 1.354 1.092 1.354 1.963h18.898c1.159 0 2.1-.94 2.1-2.099zm-19.984-16.391v.266c0-.088.008-.174.015-.26-.005-.001-.011-.004-.015-.005zm.928 2.458c-.115.001-.231.002-.348.006-.193.007-.387.025-.58.04-.001 0-.001 0-.002 0-6.56.528-12.234 6.086-12.234 6.086s3.212 9.297 12.236 10.149c.434.042.882.08 1.341.08 4.761 0 13.158-2.439 16.761-5.455-.528-.536-3.104-1.76-3.732-2.263-3.79 3.272-7.708 6.035-13.12 6.035-.433 0-.849-.028-1.25-.079-6.622-.833-8.885-8.136-8.885-8.136s2.962-4.375 8.885-4.827c.191-.014.384-.02.58-.026.084-.002.166-.005.249-.005 5.223-.017 8.64 4.606 8.64 4.606s-3.801 5.286-7.876 5.286c-.587 0-1.119-.106-1.592-.266-2.822-.948-3.733-4.23-3.733-4.23s1.638-1.96 3.733-1.708c2.087.252 2.519 1.179 3.775 3.272l2.785-2.367s-2.033-2.667-5.469-2.667c-.374 0-.741.027-1.091.065-3.992.431-6.389 3.088-6.389 3.088s1.384 5.208 6.389 6.101c.468.083.965.133 1.498.133 5.816 0 11.397-6.785 11.397-6.785s-4.705-6.178-11.968-6.131z" fill="url(#a)" fill-rule="evenodd"/></svg>