<svg fill="none" height="51" viewBox="0 0 52 51" width="52" xmlns="http://www.w3.org/2000/svg"><path d="m3 1h48v48h-48z" fill="#fff" fill-opacity=".01"/><path d="m3 1h48v48h-48z" fill="#fff" fill-opacity=".01"/><g stroke="#000" stroke-linejoin="round" stroke-width="4"><path d="m44.7796 21.6066c.2528-1.6958.1699-3.4319-.2487-5.1012-.5529-2.2052-1.6917-4.2936-3.4162-6.0181-1.7245-1.72449-3.8129-2.86321-6.018-3.41615-1.6693-.41858-3.4055-.50148-5.1013-.2487" stroke-linecap="round"/><path d="m37.1897 20.8035c.2708-1.8166-.293-3.7336-1.6914-5.132-1.3985-1.3984-3.3154-1.9623-5.132-1.6915" stroke-linecap="round"/><path d="m17.3757 9.79423c.7265 0 1.3959.39407 1.7486 1.02927l2.4464 4.4068c.3203.577.3354 1.2749.0402 1.8652l-2.3568 4.7136s.683 3.5115 3.5414 6.3699c2.8585 2.8584 6.3581 3.5296 6.3581 3.5296l4.7129-2.3564c.5907-.2954 1.2891-.2801 1.8663.0408l4.4193 2.457c.6347.3528 1.0282 1.0219 1.0282 1.748v5.0735c0 2.5837-2.3999 4.4498-4.848 3.6237-5.0279-1.6965-12.8326-4.9267-17.7794-9.8736-4.9469-4.9468-8.1771-12.7515-9.87361-17.7794-.82603-2.4481 1.04006-4.84797 3.62371-4.84797z" fill="#2f88ff"/></g></svg>